<svg xmlns="http://www.w3.org/2000/svg" width="160" height="43" viewBox="0 0 160 43" fill="none"><g clip-path="url(#clip0)"><path d="M5.87109 5.32715L9.09375 17.667L12.3047 5.32715H16.8047V22.3896H13.3477V17.7725L13.6641 10.6592L10.2539 22.3896H7.91016L4.5 10.6592L4.81641 17.7725V22.3896H1.37109V5.32715H5.87109ZM19.582 22.3896V5.32715H24.8555C26.6367 5.32715 27.9883 5.72559 28.9102 6.52246C29.8398 7.31152 30.3047 8.47168 30.3047 10.0029C30.3047 10.8701 30.1133 11.6162 29.7305 12.2412C29.3477 12.8662 28.8242 13.3232 28.1602 13.6123C28.9258 13.8311 29.5156 14.2725 29.9297 14.9365C30.3438 15.5928 30.5508 16.4053 30.5508 17.374C30.5508 19.0303 30.0938 20.2803 29.1797 21.124C28.2734 21.9678 26.957 22.3896 25.2305 22.3896H19.582ZM23.0273 14.9717V19.5303H25.2305C25.8477 19.5303 26.3164 19.3389 26.6367 18.9561C26.957 18.5732 27.1172 18.0303 27.1172 17.3271C27.1172 15.7959 26.5625 15.0107 25.4531 14.9717H23.0273ZM23.0273 12.4639H24.8203C26.1719 12.4639 26.8477 11.7646 26.8477 10.3662C26.8477 9.59277 26.6914 9.03809 26.3789 8.70215C26.0664 8.36621 25.5586 8.19824 24.8555 8.19824H23.0273V12.4639Z" fill="white"></path><path d="M36.5039 16.3896V22.3896H33.0586V5.32715H38.8711C40.5586 5.32715 41.9023 5.85059 42.9023 6.89746C43.9102 7.94434 44.4141 9.30371 44.4141 10.9756C44.4141 12.6475 43.918 13.9678 42.9258 14.9365C41.9336 15.9053 40.5586 16.3896 38.8008 16.3896H36.5039ZM36.5039 13.5186H38.8711C39.5273 13.5186 40.0352 13.3037 40.3945 12.874C40.7539 12.4443 40.9336 11.8193 40.9336 10.999C40.9336 10.1475 40.75 9.47168 40.3828 8.97168C40.0156 8.46387 39.5234 8.20605 38.9062 8.19824H36.5039V13.5186ZM51.8906 16.1553H50.1797V22.3896H46.7344V5.32715H52.2305C53.957 5.32715 55.2891 5.77637 56.2266 6.6748C57.1719 7.56543 57.6445 8.83496 57.6445 10.4834C57.6445 12.749 56.8203 14.335 55.1719 15.2412L58.1602 22.2256V22.3896H54.457L51.8906 16.1553ZM50.1797 13.2842H52.1367C52.8242 13.2842 53.3398 13.0576 53.6836 12.6045C54.0273 12.1436 54.1992 11.5303 54.1992 10.7646C54.1992 9.05371 53.5312 8.19824 52.1953 8.19824H50.1797V13.2842ZM63.6094 22.3896H60.1641V5.32715H63.6094V22.3896ZM78.4336 22.3896H74.9883L69.9492 11.1982V22.3896H66.5039V5.32715H69.9492L75 16.5303V5.32715H78.4336V22.3896ZM91.8984 8.19824H87.6797V22.3896H84.2227V8.19824H80.0742V5.32715H91.8984V8.19824Z" fill="#ED008C"></path><path d="M5.37305 35.4424H1.89258V37.1299H3.49219C4.29688 37.1299 4.92383 37.3213 5.37305 37.7041C5.82227 38.0869 6.04688 38.6006 6.04688 39.2451C6.04688 39.8857 5.82422 40.4014 5.37891 40.792C4.93359 41.1826 4.32617 41.3818 3.55664 41.3896H0.808594V34.5635H5.37305V35.4424ZM3.51562 40.499C3.96484 40.499 4.31836 40.3838 4.57617 40.1533C4.83398 39.9189 4.96289 39.6123 4.96289 39.2334C4.96289 38.8779 4.83984 38.5908 4.59375 38.3721C4.35156 38.1494 4.01562 38.0322 3.58594 38.0205H1.89258V40.499H3.51562ZM13.0547 38.1787C13.0547 39.1982 12.7852 40.0049 12.2461 40.5986C11.707 41.1885 10.9844 41.4834 10.0781 41.4834C9.18359 41.4834 8.46094 41.1846 7.91016 40.5869C7.36328 39.9893 7.08984 39.1768 7.08984 38.1494V37.7861C7.08984 36.7783 7.36133 35.9736 7.9043 35.3721C8.45117 34.7705 9.17188 34.4697 10.0664 34.4697C10.9766 34.4697 11.6992 34.7666 12.2344 35.3604C12.7734 35.9541 13.0469 36.749 13.0547 37.7451V38.1787ZM11.9824 37.7744C11.9824 37.001 11.8145 36.4092 11.4785 35.999C11.1426 35.5889 10.6719 35.3838 10.0664 35.3838C9.48047 35.3838 9.01562 35.5928 8.67188 36.0107C8.33203 36.4287 8.16211 37.0225 8.16211 37.792V38.1787C8.16211 38.9404 8.33398 39.5322 8.67773 39.9541C9.02148 40.3721 9.48828 40.5811 10.0781 40.5811C10.6875 40.5811 11.1562 40.376 11.4844 39.9658C11.8164 39.5518 11.9824 38.9561 11.9824 38.1787V37.7744ZM19.9453 34.5635V41.3896H18.8613V35.46H16.4121L16.3242 37.6982C16.2734 39.0342 16.0879 39.9795 15.7676 40.5342C15.4473 41.085 14.9434 41.3701 14.2559 41.3896H13.8574L13.8809 40.4229L14.1211 40.4053C14.4883 40.3779 14.75 40.21 14.9062 39.9014C15.0625 39.5928 15.166 38.9971 15.2168 38.1143L15.3633 34.5635H19.9453ZM26.8125 39.2451C26.8125 39.8857 26.5898 40.4014 26.1445 40.792C25.6992 41.1826 25.0918 41.3818 24.3223 41.3896H21.5742V34.5635H22.6582V37.1299H24.2578C25.0625 37.1299 25.6895 37.3213 26.1387 37.7041C26.5879 38.0869 26.8125 38.6006 26.8125 39.2451ZM24.2812 40.499C24.7305 40.499 25.084 40.3838 25.3418 40.1533C25.5996 39.9189 25.7285 39.6123 25.7285 39.2334C25.7285 38.8779 25.6055 38.5908 25.3594 38.3721C25.1172 38.1494 24.7812 38.0322 24.3516 38.0205H22.6582V40.499H24.2812ZM35.8828 41.3896H28.0312V34.5635H29.1152V40.499H31.4121V34.5635H32.502V40.499H34.7988V34.5635H35.8828V41.3896ZM41.7129 38.3076H38.5957V40.5049H42.2227V41.3896H37.5117V34.5635H42.1875V35.46H38.5957V37.417H41.7129V38.3076ZM43.3359 43.0889L42.7207 42.667C43.0879 42.1553 43.2793 41.6279 43.2949 41.085V40.1064H44.3555V40.9561C44.3555 41.3506 44.2578 41.7451 44.0625 42.1396C43.8711 42.5342 43.6289 42.8506 43.3359 43.0889ZM53.6895 41.3896H52.6055V38.7529C52.043 38.9404 51.4434 39.0342 50.8066 39.0342C49.9785 39.0342 49.3477 38.8369 48.9141 38.4424C48.4805 38.0479 48.2559 37.4736 48.2402 36.7197V34.5635H49.3242V36.6436C49.3242 37.1709 49.4473 37.5537 49.6934 37.792C49.9395 38.0264 50.3105 38.1436 50.8066 38.1436C51.4199 38.1436 52.0195 38.0459 52.6055 37.8506V34.5635H53.6895V41.3896ZM59.5137 38.3076H56.3965V40.5049H60.0234V41.3896H55.3125V34.5635H59.9883V35.46H56.3965V37.417H59.5137V38.3076ZM62.5664 34.5635L64.8574 39.9014L67.1367 34.5635H68.5488V41.3896H67.4707V39.04L67.582 35.917L65.25 41.3896H64.4531L62.127 35.9404L62.2383 39.04V41.3896H61.1602V34.5635H62.5664ZM78.3223 35.46H75.9844V41.3896H74.9004V35.46H72.5742V34.5635H78.3223V35.46ZM84.0469 34.5635H85.1309V41.3896H84.0469V36.21L80.4551 41.3896H79.3711V34.5635H80.4551V39.7432L84.0469 34.5635ZM92.3438 41.3896H91.2539V35.46H87.8379V41.3896H86.7539V34.5635H92.3438V41.3896ZM99.6797 38.1787C99.6797 39.1982 99.4102 40.0049 98.8711 40.5986C98.332 41.1885 97.6094 41.4834 96.7031 41.4834C95.8086 41.4834 95.0859 41.1846 94.5352 40.5869C93.9883 39.9893 93.7148 39.1768 93.7148 38.1494V37.7861C93.7148 36.7783 93.9863 35.9736 94.5293 35.3721C95.0762 34.7705 95.7969 34.4697 96.6914 34.4697C97.6016 34.4697 98.3242 34.7666 98.8594 35.3604C99.3984 35.9541 99.6719 36.749 99.6797 37.7451V38.1787ZM98.6074 37.7744C98.6074 37.001 98.4395 36.4092 98.1035 35.999C97.7676 35.5889 97.2969 35.3838 96.6914 35.3838C96.1055 35.3838 95.6406 35.5928 95.2969 36.0107C94.957 36.4287 94.7871 37.0225 94.7871 37.792V38.1787C94.7871 38.9404 94.959 39.5322 95.3027 39.9541C95.6465 40.3721 96.1133 40.5811 96.7031 40.5811C97.3125 40.5811 97.7812 40.376 98.1094 39.9658C98.4414 39.5518 98.6074 38.9561 98.6074 38.1787V37.7744ZM105.533 35.46H102.146V41.3896H101.062V34.5635H105.533V35.46ZM107.678 38.8232V41.3896H106.594V34.5635H109.33C110.127 34.5635 110.762 34.7588 111.234 35.1494C111.707 35.5361 111.943 36.0576 111.943 36.7139C111.943 37.3779 111.715 37.8955 111.258 38.2666C110.801 38.6377 110.154 38.8232 109.318 38.8232H107.678ZM107.678 37.9326H109.33C109.814 37.9326 110.189 37.8291 110.455 37.6221C110.721 37.415 110.854 37.1162 110.854 36.7256C110.854 36.3506 110.721 36.0479 110.455 35.8174C110.189 35.583 109.824 35.4639 109.359 35.46H107.678V37.9326ZM117.234 39.7549H114.188L113.543 41.3896H112.436L115.242 34.5635H116.215L118.98 41.3896H117.879L117.234 39.7549ZM114.539 38.8701H116.889L115.723 35.8877L114.539 38.8701ZM123.703 35.2607C124.602 35.3115 125.316 35.5811 125.848 36.0693C126.379 36.5576 126.645 37.1982 126.645 37.9912C126.645 38.792 126.375 39.4385 125.836 39.9307C125.301 40.4229 124.59 40.6943 123.703 40.7451V41.3896H122.619V40.7451C121.705 40.6943 120.984 40.4229 120.457 39.9307C119.934 39.4346 119.672 38.792 119.672 38.0029C119.672 37.2061 119.938 36.5615 120.469 36.0693C121 35.5771 121.717 35.3057 122.619 35.2549V34.5635H123.703V35.2607ZM120.75 38.0029C120.75 39.1592 121.373 39.7705 122.619 39.8369V36.1689C122.018 36.2041 121.555 36.3682 121.23 36.6611C120.91 36.9541 120.75 37.4014 120.75 38.0029ZM125.566 37.9912C125.566 37.3936 125.404 36.9502 125.08 36.6611C124.756 36.3682 124.297 36.2041 123.703 36.1689V39.8369C124.297 39.7979 124.756 39.6318 125.08 39.3389C125.404 39.0459 125.566 38.5967 125.566 37.9912ZM132.703 34.5635H133.787V41.3896H132.703V36.21L129.111 41.3896H128.027V34.5635H129.111V39.7432L132.703 34.5635ZM135.07 41.3896L136.77 38.3135C136.293 38.165 135.943 37.9385 135.721 37.6338C135.502 37.3252 135.393 36.9678 135.393 36.5615C135.393 35.9326 135.607 35.4443 136.037 35.0967C136.467 34.749 137.072 34.5713 137.854 34.5635H140.578V41.3896H139.494V38.583H137.713L136.219 41.3896H135.07ZM136.488 36.6084C136.488 37.3115 136.938 37.6709 137.836 37.6865H139.494V35.46H137.895C136.957 35.46 136.488 35.8428 136.488 36.6084Z" fill="#8D96B2"></path></g><defs><clipPath id="clip0"><rect y="0.389648" width="160" height="42" fill="white"></rect></clipPath></defs></svg>